<svg width="724" fill="#001e62" height="724" xmlns="http://www.w3.org/2000/svg" xmlns:xlink="http://www.w3.org/1999/xlink" overflow="hidden"><defs><clipPath id="clip0"><rect x="1952" y="818" width="724" fill="#001e62" height="724"/></clipPath></defs><g clip-path="url(#clip0)" transform="translate(-1952 -818)"><path d="M2317.14 1164.84C2329 1164.84 2338.61 1174.45 2338.61 1186.31 2338.6 1198.16 2328.99 1207.76 2317.14 1207.78 2305.28 1207.78 2295.67 1198.17 2295.67 1186.31 2295.67 1174.45 2305.28 1164.84 2317.14 1164.84ZM2317.14 993.073C2305.28 993.073 2295.67 1002.69 2295.67 1014.54L2295.67 1125.85C2262.46 1137.25 2244.77 1173.41 2256.17 1206.62 2257.03 1209.12 2258.04 1211.57 2259.2 1213.95L2259.02 1214.07 2194.61 1278.48C2186.08 1286.72 2185.84 1300.31 2194.08 1308.84 2202.32 1317.37 2215.91 1317.61 2224.44 1309.37 2224.62 1309.19 2224.79 1309.02 2224.97 1308.84L2289.38 1244.43 2289.5 1244.24C2298.11 1248.45 2307.56 1250.67 2317.14 1250.72 2352.63 1250.81 2381.46 1222.11 2381.55 1186.62 2381.61 1159.3 2364.39 1134.92 2338.61 1125.85L2338.61 1014.54C2338.61 1002.69 2329 993.073 2317.14 993.073ZM2292.74 901.956C2293.19 913.697 2303.06 922.854 2314.8 922.413 2325.92 921.995 2334.84 913.076 2335.26 901.956 2394.41 906.414 2450.59 929.707 2495.54 968.418 2487.59 977.052 2488.14 990.499 2496.77 998.453 2504.91 1005.95 2517.44 1005.95 2525.58 998.453 2564.29 1043.41 2587.59 1099.58 2592.04 1158.74 2580.3 1159.19 2571.15 1169.06 2571.59 1180.8 2572 1191.92 2580.92 1200.84 2592.04 1201.26 2587.58 1260.41 2564.29 1316.59 2525.58 1361.54 2516.94 1353.59 2503.5 1354.14 2495.54 1362.77 2488.04 1370.91 2488.04 1383.44 2495.54 1391.58 2450.59 1430.29 2394.41 1453.58 2335.26 1458.04 2334.81 1446.3 2324.94 1437.15 2313.2 1437.59 2302.08 1438.01 2293.16 1446.92 2292.74 1458.04 2233.59 1453.59 2177.41 1430.29 2132.46 1391.58 2140.41 1382.95 2139.86 1369.5 2131.23 1361.55 2123.09 1354.05 2110.56 1354.05 2102.42 1361.55 2063.71 1316.59 2040.41 1260.42 2035.96 1201.26 2047.7 1200.81 2056.85 1190.94 2056.41 1179.2 2055.99 1168.08 2047.08 1159.16 2035.96 1158.74 2040.41 1099.59 2063.71 1043.41 2102.42 998.456 2111.05 1006.41 2124.5 1005.86 2132.45 997.225 2139.95 989.088 2139.95 976.558 2132.45 968.421 2177.41 929.707 2233.58 906.414 2292.74 901.956ZM2314 857.942C2231.9 857.942 2149.8 889.207 2087.08 951.738 2086.83 951.953 2086.51 952.034 2086.27 952.275 2086.04 952.515 2085.96 952.835 2085.74 953.082 1960.68 1078.51 1960.68 1281.49 2085.74 1406.92 2085.95 1407.16 2086.03 1407.49 2086.27 1407.73 2086.51 1407.96 2086.83 1408.04 2087.08 1408.26 2212.51 1533.32 2415.49 1533.32 2540.92 1408.26 2541.16 1408.05 2541.49 1407.97 2541.72 1407.73 2541.96 1407.48 2542.04 1407.16 2542.26 1406.92 2667.32 1281.49 2667.32 1078.51 2542.26 953.082 2542.05 952.835 2541.97 952.513 2541.72 952.275 2541.48 952.037 2541.16 951.961 2540.92 951.738 2478.2 889.207 2396.1 857.942 2314 857.942ZM2314 818C2513.93 818 2676 980.073 2676 1180 2676 1379.93 2513.93 1542 2314 1542 2114.07 1542 1952 1379.93 1952 1180 1952 980.073 2114.07 818 2314 818Z" fill-rule="evenodd"/></g></svg>