<svg width="607" fill="#001e62" height="669" xmlns="http://www.w3.org/2000/svg" xmlns:xlink="http://www.w3.org/1999/xlink" overflow="hidden"><defs><clipPath id="clip0"><rect x="2789" y="550" width="607" fill="#001e62" height="669"/></clipPath></defs><g clip-path="url(#clip0)" transform="translate(-2789 -550)"><path d="M3092.5 897C3182.11 897 3255 801.952 3255 712.409 3255 622.866 3182.11 550 3092.5 550 3002.89 550 2930 622.866 2930 712.409 2930.01 801.952 3002.9 897 3092.5 897Z" fill-rule="evenodd"/><path d="M3230.79 902.484C3256.02 918.859 3273.42 946.196 3276.11 977.722 3297.7 982.56 3313.88 1001.8 3313.88 1024.76 3313.88 1051.37 3292.19 1073.01 3265.53 1073.01 3238.88 1073.01 3217.19 1051.37 3217.19 1024.76 3217.19 1002.22 3232.8 983.28 3253.78 978.021 3250.67 948.852 3231.31 924.52 3204.94 914.104L3095.71 1016.26 2985.03 912.745C2955.03 922.853 2933.23 950.725 2932.16 983.785 2936.46 986.275 2939.95 990.135 2942.09 994.808 2957.98 1002.3 2972.01 1018.05 2982.75 1040.48 2984.56 1044.24 2984.78 1048.5 2983.46 1052.4 2989.91 1068.95 2993.59 1087.02 2993.59 1102.21 2993.59 1123.49 2993.59 1143.61 2970.36 1148.77 2967.83 1150.87 2964.69 1152.01 2961.37 1152.01L2945.85 1152.01C2938.06 1152.01 2931.72 1145.68 2931.72 1137.91L2931.73 1137.36C2932.03 1129.87 2938.31 1123.81 2945.85 1123.81L2961.37 1123.81C2962.96 1123.81 2964.52 1124.07 2966.01 1124.61 2966.95 1124.34 2967.25 1124.12 2967.25 1124.12 2968.98 1121.06 2968.98 1108.32 2968.98 1102.2 2968.98 1089.87 2965.89 1074.97 2960.46 1061.13 2957.65 1059.54 2955.38 1057.12 2953.98 1054.21 2944.56 1034.53 2931.75 1021.83 2921.35 1021.83 2910.71 1021.83 2897.27 1035.57 2887.9 1056 2886.37 1059.32 2883.68 1062.04 2880.38 1063.65 2875.48 1076.9 2872.79 1090.54 2872.79 1102.2 2872.79 1107.34 2872.79 1120.97 2874.76 1124.17 2874.76 1124.17 2875.21 1124.43 2876.45 1124.75 2878.05 1124.12 2879.78 1123.81 2881.5 1123.81L2897.06 1123.81C2904.32 1123.81 2910.36 1129.33 2911.09 1136.47L2911.17 1137.36C2911.17 1145.68 2904.83 1152.01 2897.05 1152.01L2881.49 1152.01C2878.41 1152.01 2875.42 1150.98 2872.96 1149.1 2864.07 1147.45 2857.81 1143.52 2853.84 1137.15 2849.05 1129.47 2848.17 1119.36 2848.17 1102.2 2848.17 1087.15 2851.65 1069.83 2857.98 1053.3 2857.05 1049.76 2857.36 1046.06 2858.9 1042.73 2865.49 1028.36 2873.86 1016.06 2883.11 1007.16 2888.2 1002.27 2893.66 998.338 2899.39 995.456 2901.54 990.444 2905.28 986.327 2909.86 983.723 2910.72 949.356 2929.02 919.302 2956.28 902 2860.44 924.17 2789 1009.8 2789 1112.17 2789 1171.15 2924.87 1219 3092.5 1219 3260.12 1219 3396 1171.16 3396 1112.17 3396 1010.55 3325.58 925.395 3230.79 902.484Z" fill-rule="evenodd"/><path d="M3288 1025C3288 1037.15 3277.93 1047 3265.5 1047 3253.07 1047 3243 1037.15 3243 1025 3243 1012.85 3253.07 1003 3265.5 1003 3277.93 1003 3288 1012.85 3288 1025Z" fill-rule="evenodd"/></g></svg>