<svg width="333" height="333" xmlns="http://www.w3.org/2000/svg" xmlns:xlink="http://www.w3.org/1999/xlink" overflow="hidden"><defs><clipPath id="clip0"><rect x="525" y="-179" width="333" height="333"/></clipPath><clipPath id="clip1"><rect x="541" y="-165" width="300" height="301"/></clipPath><clipPath id="clip2"><rect x="541" y="-165" width="300" height="301"/></clipPath></defs><g clip-path="url(#clip0)" transform="translate(-525 179)"><g clip-path="url(#clip1)"><g clip-path="url(#clip2)"><path d="M222.846 229.868C208.801 219.569 196.629 210.674 183.52 201.31 180.243 198.97 176.498 197.565 172.752 197.565 168.539 197.565 164.794 198.97 160.58 201.31L160.112 201.779C158.239 203.183 156.367 204.119 154.962 206.46 150.281 211.61 145.599 217.228 141.385 222.846 140.449 222.378 139.513 221.441 139.045 220.973 118.914 205.056 100.187 186.329 81.9286 163.389 79.1197 160.112 76.7788 156.367 73.9699 152.621 73.5017 152.153 73.0335 151.217 72.5654 150.749 77.7152 147.472 82.3968 143.726 87.5466 139.513 89.8874 137.64 92.2283 134.831 95.0372 131.554 99.7189 125.468 100.187 117.977 96.4417 111.423 94.5691 108.146 92.6964 104.869 90.3556 102.06L86.1421 95.9736C80.5242 87.0785 74.438 78.1833 68.3519 69.2882 63.6703 62.2658 57.5841 60.8613 53.3707 60.8613 51.0298 60.8613 48.689 61.3294 46.3482 61.7976 37.4531 64.1384 29.9625 69.2882 23.8764 73.5017 12.6404 81.4605 10.2996 93.1646 9.36327 101.592 7.95878 115.636 11.7041 128.277 15.4494 140.449 20.5992 155.899 27.6217 170.88 36.9849 185.861 52.9025 211.142 73.0335 233.146 96.9099 250.936 121.254 269.194 144.663 281.366 169.943 286.984 174.625 287.921 178.839 288.389 183.052 288.857 190.543 288.857 197.565 287.921 204.119 285.112L204.588 285.112 205.056 285.112C205.524 285.112 205.524 284.644 205.992 284.644 206.928 284.175 207.865 283.707 209.269 282.771 221.441 274.344 227.059 261.704 229.868 252.808 232.677 242.977 229.868 235.018 222.846 229.868Z" fill="#001e62" transform="matrix(1 0 0 1.00104 541.339 -164.765)"/><path d="M252.808 79.1197 222.846 79.1197 222.846 49.1572 199.438 49.1572 199.438 79.1197 169.943 79.1197 169.943 102.528 199.438 102.528 199.438 132.022 222.846 132.022 222.846 102.06 252.808 102.06Z" fill="#001e62" transform="matrix(1 0 0 1.00104 541.339 -164.765)"/><path d="M237.827 16.8539C211.61 7.95878 183.52 12.6404 161.985 30.4306 150.749 39.3258 142.79 51.498 138.108 65.0748 131.554 83.8013 132.49 104.401 140.449 122.659 139.981 123.127 139.513 123.595 138.576 124.063L126.872 132.022C122.659 134.831 122.659 138.576 122.659 139.981 123.127 144.194 126.404 147.003 132.49 149.344L132.958 149.344C139.045 151.217 144.663 152.621 149.812 153.09L151.217 153.09C152.153 153.09 153.09 153.09 154.494 153.09 157.771 153.09 160.58 153.09 164.325 152.621 164.325 152.621 164.325 152.621 164.325 152.621 170.88 157.771 178.37 161.516 185.861 164.325 212.078 173.221 240.168 168.539 261.704 150.749 272.939 141.854 280.898 129.681 285.58 116.105 292.602 96.4417 291.198 74.9062 282.303 56.1796 273.408 37.9213 257.49 23.8764 237.827 16.8539ZM273.408 112.359C269.662 123.595 262.64 133.427 253.277 140.917 235.486 155.43 212.078 159.644 190.543 152.153 183.52 149.812 176.966 146.067 171.348 141.854L170.412 141.385 168.539 140.449C166.198 139.981 163.857 139.513 162.453 139.981 160.112 140.449 157.303 140.449 154.962 140.449 154.494 140.449 153.558 140.449 152.621 140.449L151.217 140.449C148.408 140.449 145.131 139.513 141.385 138.576L145.599 135.767C147.472 134.363 149.812 132.958 151.217 131.086 153.09 128.277 154.026 125.468 153.558 122.191L153.558 121.254 153.09 119.85C145.599 104.401 144.663 86.6103 150.281 70.2246 154.026 58.9886 161.048 49.1572 170.412 41.6666 188.202 27.1535 211.61 22.94 233.146 30.4306 267.321 41.1984 285.112 78.1833 273.408 112.359Z" fill="#001e62" transform="matrix(1 0 0 1.00104 541.339 -164.765)"/></g></g></g></svg>